<svg width="20" height="20" viewBox="0 0 20 20" fill="none" xmlns="http://www.w3.org/2000/svg">
<rect width="20" height="20" fill="#1E1E1E"/>
<g id="&#208;&#155;&#209;&#141;&#208;&#189;&#208;&#180;&#208;&#184;&#208;&#189;&#208;&#179; &#208;&#191;&#209;&#128;&#208;&#181;&#208;&#191;&#208;&#190;&#208;&#180;&#208;&#176;&#208;&#178;&#208;&#176;&#209;&#130;&#208;&#181;&#208;&#187;&#209;&#142;" clip-path="url(#clip0_0_1)">
<rect width="1920" height="1223" transform="translate(-244 -772)" fill="white"/>
<g id="Frame 4172">
<g id="Frame 4170">
<g id="Frame 4169">
<g id="Frame 3736">
<g id="Frame 3744">
<g id="Frame 3734">
<g id="Frame 3734_2">
<rect x="-4" y="-4" width="28" height="28" rx="14" fill="#FFABCE"/>
<g id="general/Promote">
<path id="Vector 266" d="M4.9974 7.5V12.5M4.9974 7.5L15.2117 3.41426C16.3065 2.97635 17.4974 3.78261 17.4974 4.96172V15.0383C17.4974 16.2174 16.3065 17.0236 15.2117 16.5857L4.9974 12.5M4.9974 7.5H2.4974C2.03716 7.5 1.66406 7.8731 1.66406 8.33333V11.6667C1.66406 12.1269 2.03716 12.5 2.4974 12.5H4.9974" stroke="#392B4B" stroke-width="2"/>
<path id="Vector 267" d="M7.08333 13.333L6.49848 15.0876C6.35895 15.5062 6.56988 15.961 6.97955 16.1248L9.59609 17.1714C10.0413 17.3495 10.5445 17.1161 10.6961 16.6612L11.25 14.9997" stroke="#392B4B" stroke-width="2"/>
</g>
</g>
</g>
</g>
</g>
</g>
</g>
</g>
</g>
<defs>
<clipPath id="clip0_0_1">
<rect width="1920" height="1223" fill="white" transform="translate(-244 -772)"/>
</clipPath>
</defs>
</svg>
