<svg width="20" height="20" viewBox="0 0 20 20" fill="none" xmlns="http://www.w3.org/2000/svg">
<path d="M2.66406 14.9997C2.66406 15.6287 2.73919 16.0067 2.85478 16.2515C2.95194 16.4572 3.10639 16.632 3.4441 16.7909C3.81577 16.9658 4.38933 17.1101 5.28379 17.2036C6.16882 17.2962 7.29937 17.333 8.7474 17.333C10.1954 17.333 11.326 17.2962 12.211 17.2036C13.1055 17.1101 13.679 16.9658 14.0507 16.7909C14.3884 16.632 14.5429 16.4572 14.64 16.2515C14.7556 16.0067 14.8307 15.6287 14.8307 14.9997C14.8307 14.3707 14.7556 13.9926 14.64 13.7478C14.5429 13.5421 14.3884 13.3674 14.0507 13.2085C13.679 13.0336 13.1055 12.8893 12.211 12.7957C11.326 12.7032 10.1954 12.6663 8.7474 12.6663C7.29937 12.6663 6.16882 12.7032 5.28379 12.7957C4.38933 12.8893 3.81577 13.0336 3.4441 13.2085C3.10639 13.3674 2.95194 13.5421 2.85478 13.7478C2.73919 13.9926 2.66406 14.3707 2.66406 14.9997Z" stroke="#392B4B" stroke-width="2" stroke-linecap="round" stroke-linejoin="round"/>
<circle cx="3.75" cy="3.75" r="2.75" transform="matrix(-1 0 0 1 12.5 2.5)" stroke="#392B4B" stroke-width="2"/>
<path d="M13.7812 8.84691L14.9351 10.0008L18.012 6.92383" stroke="#392B4B" stroke-width="2" stroke-linecap="round" stroke-linejoin="round"/>
</svg>
