<svg width="20" height="20" viewBox="0 0 20 20" fill="none" xmlns="http://www.w3.org/2000/svg">
<path id="Union" fill-rule="evenodd" clip-rule="evenodd" d="M13.9994 16.9301C12.8228 17.6106 11.4569 18 10 18C8.5431 18 7.17716 17.6106 6.0006 16.9301C6.03791 14.7532 7.81421 13 10 13C12.1858 13 13.9621 14.7532 13.9994 16.9301ZM15.8107 15.4988C15.1442 12.9116 12.7953 11 10 11C7.20468 11 4.85583 12.9116 4.18934 15.4988C2.83228 14.0652 2 12.1298 2 10C2 5.58172 5.58172 2 10 2C14.4183 2 18 5.58172 18 10C18 12.1298 17.1677 14.0652 15.8107 15.4988ZM20 10C20 15.5228 15.5228 20 10 20C4.47715 20 0 15.5228 0 10C0 4.47715 4.47715 0 10 0C15.5228 0 20 4.47715 20 10ZM10 8C10.5523 8 11 7.55228 11 7C11 6.44772 10.5523 6 10 6C9.44772 6 9 6.44772 9 7C9 7.55228 9.44772 8 10 8ZM10 10C11.6569 10 13 8.65685 13 7C13 5.34315 11.6569 4 10 4C8.34315 4 7 5.34315 7 7C7 8.65685 8.34315 10 10 10Z" fill="#966CEE"/>
</svg>
