<svg width="28" height="27" viewBox="0 0 28 27" fill="none" xmlns="http://www.w3.org/2000/svg">
<path d="M6.66666 5.66667V3.66667C6.66666 2.19391 7.86056 1 9.33332 1H18.6667C20.1394 1 21.3333 2.19391 21.3333 3.66667V5.66667" stroke="#B298EE"/>
<path d="M9.33331 6.33317V4.33317C9.33331 3.96498 9.63179 3.6665 9.99998 3.6665H18C18.3682 3.6665 18.6666 3.96498 18.6666 4.33317V6.33317" stroke="#B298EE"/>
<path d="M6.15006 17.0002H3.99999C2.15904 17.0002 0.666656 15.5078 0.666656 13.6668V9.66683C0.666656 7.82588 2.15904 6.3335 3.99999 6.3335H24C25.8409 6.3335 27.3333 7.82588 27.3333 9.66683V13.6668C27.3333 15.5078 25.8409 17.0002 24 17.0002H21.8499" stroke="#966CEE"/>
<path d="M26 16.3335V22.3335C26 24.1744 24.5076 25.6668 22.6667 25.6668H5.33333C3.49238 25.6668 2 24.1744 2 22.3335V16.3335" stroke="#966CEE"/>
<path d="M8.66666 17H19.3333" stroke="#966CEE"/>
<path d="M5.83331 15.9998C5.83331 14.9873 6.65412 14.1665 7.66665 14.1665C8.67917 14.1665 9.49998 14.9873 9.49998 15.9998V17.9998C9.49998 19.0124 8.67917 19.8332 7.66665 19.8332C6.65412 19.8332 5.83331 19.0124 5.83331 17.9998V15.9998Z" stroke="#966CEE"/>
<path d="M18.5 15.9998C18.5 14.9873 19.3208 14.1665 20.3333 14.1665C21.3459 14.1665 22.1667 14.9873 22.1667 15.9998V17.9998C22.1667 19.0124 21.3459 19.8332 20.3333 19.8332C19.3208 19.8332 18.5 19.0124 18.5 17.9998V15.9998Z" stroke="#966CEE"/>
</svg>
