<svg width="16" height="17" viewBox="0 0 16 17" fill="none" xmlns="http://www.w3.org/2000/svg">
<g id="Frame 4136">
<path id="Squircle" d="M0.8 8.92448C0.8 11.5345 1.17475 12.7458 2.02606 13.4197C2.4705 13.7716 3.12021 14.0397 4.10931 14.2138C5.09884 14.3879 6.36715 14.4578 8 14.4578C9.63286 14.4578 10.9012 14.3879 11.8907 14.2138C12.8798 14.0397 13.5295 13.7716 13.9739 13.4197C14.8253 12.7458 15.2 11.5345 15.2 8.92448C15.2 7.38217 15.0712 6.31163 14.7728 5.54956C14.4532 4.73372 13.9221 4.22326 12.9232 3.88851C11.8583 3.53165 10.3016 3.39115 8 3.39115C5.69845 3.39115 4.14174 3.53165 3.07682 3.88851C2.07787 4.22326 1.54677 4.73372 1.22724 5.54956C0.928762 6.31163 0.8 7.38217 0.8 8.92448Z" stroke="#392B4B" stroke-width="1.6" stroke-linecap="round" stroke-linejoin="round"/>
</g>
</svg>
