<svg width="36" height="37" viewBox="0 0 36 37" fill="none" xmlns="http://www.w3.org/2000/svg">
<path d="M27.8995 8.43359L23.1854 13.1476" stroke="#CAC3F8"/>
<path d="M10.4575 19.983L16.3501 25.8755L13.4038 28.8218C11.7766 30.449 9.13843 30.449 7.51125 28.8218C5.88406 27.1946 5.88406 24.5564 7.51125 22.9293L10.4575 19.983Z" stroke="#966CEE"/>
<rect x="11.4003" y="13.3834" width="16.3333" height="5.66667" rx="2.83333" transform="rotate(45 11.4003 13.3834)" stroke="#966CEE"/>
<path d="M21.7712 23.9901L24.6892 23.6659C26.0838 23.511 27.1846 22.4101 27.3396 21.0156L28.4282 11.2181C28.6405 9.30731 27.026 7.6928 25.1152 7.90511L15.3177 8.99372C13.9232 9.14867 12.8223 10.2495 12.6674 11.6441L12.3431 14.5621" stroke="#966CEE"/>
<circle cx="21.7712" cy="14.5623" r="2.16667" transform="rotate(45 21.7712 14.5623)" stroke="#CAC3F8"/>
</svg>
