<svg width="36" height="36" viewBox="0 0 36 36" fill="none" xmlns="http://www.w3.org/2000/svg">
<path d="M12.109 35.0093C13.9548 35.6513 15.9369 36 18 36C27.9411 36 36 27.9038 36 17.9166C36 10.2965 31.3085 3.77728 24.6691 1.11504C25.957 4.1954 25.3483 7.69732 22.9827 10.9689C19.4087 15.9118 13.9562 19.0699 8.85854 20.9973C6.05458 22.0574 3.26227 22.7814 0.788094 23.2253C2.21121 27.8878 4.42379 30.6031 9.47251 30.0445C12.8186 29.6743 16.7137 27.8947 20.7066 23.7747L18.5114 22.0265L28.8409 17.6724L26.8977 28.705L24.8928 27.1084C20.7722 31.4845 16.4029 34.0378 12.109 35.0093Z" fill="#966CEE"/>
<path d="M15.082 0.0696489C6.52854 1.47042 0 8.92758 0 17.9166C0 17.9241 4.50078e-06 17.9316 1.34998e-05 17.939C2.10687 17.5525 4.52983 16.9252 6.98536 15.9969C11.5712 14.263 15.954 11.5989 18.6799 7.82887C20.7869 4.91488 19.7056 -0.687497 15.082 0.0696489Z" fill="#966CEE"/>
</svg>
