<svg width="28" height="32" viewBox="0 0 28 32" fill="none" xmlns="http://www.w3.org/2000/svg">
<circle cx="14" cy="13.9998" r="2.83333" stroke="#CAC3F8"/>
<path d="M16.6513 28.1816L14 31.237L11.3487 28.1816C10.6085 27.3287 10.5353 26.0957 11.1437 25.1665H16.8562C17.4646 26.0957 17.3914 27.3287 16.6513 28.1816Z" stroke="#CAC3F8"/>
<path d="M13.9958 0.589439C16.231 1.97169 18.0123 3.94688 19.3752 6.16667H8.87538C10.2087 3.94502 11.9128 1.97077 13.9958 0.589439ZM8.28705 7.16667H19.9526C21.8049 10.5798 22.713 14.385 22.8221 17.3472C22.8782 18.8698 22.7216 20.1311 22.402 20.9908C22.0756 21.869 21.6544 22.1667 21.253 22.1667H21.2298H21.2065H21.1831H21.1597H21.1362H21.1126H21.089H21.0653H21.0416H21.0178H20.994H20.9701H20.9461H20.9221H20.898H20.8739H20.8497H20.8254H20.8011H20.7768H20.7524H20.7279H20.7034H20.6788H20.6541H20.6295H20.6047H20.5799H20.5551H20.5302H20.5052H20.4802H20.4551H20.43H20.4048H20.3796H20.3543H20.329H20.3036H20.2782H20.2527H20.2272H20.2016H20.176H20.1503H20.1246H20.0988H20.073H20.0471H20.0212H19.9952H19.9692H19.9431H19.917H19.8908H19.8646H19.8383H19.812H19.7856H19.7592H19.7328H19.7063H19.6798H19.6532H19.6265H19.5999H19.5731H19.5464H19.5196H19.4927H19.4658H19.4388H19.4119H19.3848H19.3578H19.3306H19.3035H19.2763H19.249H19.2218H19.1944H19.1671H19.1396H19.1122H19.0847H19.0572H19.0296H19.002H18.9743H18.9466H18.9189H18.8912H18.8633H18.8355H18.8076H18.7797H18.7517H18.7237H18.6957H18.6676H18.6395H18.6114H18.5832H18.555H18.5267H18.4984H18.4701H18.4417H18.4133H18.3849H18.3565H18.328H18.2994H18.2709H18.2423H18.2136H18.185H18.1563H18.1275H18.0988H18.07H18.0411H18.0123H17.9834H17.9545H17.9255H17.8965H17.8675H17.8385H17.8094H17.7803H17.7512H17.722H17.6928H17.6636H17.6343H17.605H17.5757H17.5464H17.517H17.4877H17.4582H17.4288H17.3993H17.3698H17.3403H17.3108H17.2812H17.2516H17.222H17.1923H17.1626H17.1329H17.1032H17.0735H17.0437H17.0139H16.9841H16.9542H16.9244H16.8945H16.8646H16.8346H16.8047H16.7747H16.7447H16.7147H16.6847H16.6546H16.6245H16.5944H16.5643H16.5341H16.504H16.4738H16.4436H16.4134H16.3831H16.3529H16.3226H16.2923H16.262H16.2317H16.2013H16.171H16.1406H16.1102H16.0798H16.0494H16.0189H15.9885H15.958H15.9275H15.897H15.8665H15.836H15.8054H15.7748H15.7443H15.7137H15.6831H15.6525H15.6218H15.5912H15.5606H15.5299H15.4992H15.4685H15.4378H15.4071H15.3764H15.3457H15.3149H15.2842H15.2534H15.2226H15.1919H15.1611H15.1303H15.0995H15.0686H15.0378H15.007H14.9761H14.9453H14.9144H14.8836H14.8527H14.8218H14.791H14.7601H14.7292H14.6983H14.6674H14.6365H14.6055H14.5746H14.5437H14.5128H14.4818H14.4509H14.42H14.389H14.3581H14.3271H14.2962H14.2652H14.2343H14.2033H14.1723H14.1414H14.1104H14.0795H14.0485H14.0175H13.9866H13.9556H13.9246H13.8937H13.8627H13.8317H13.8008H13.7698H13.7389H13.7079H13.6769H13.646H13.615H13.5841H13.5532H13.5222H13.4913H13.4603H13.4294H13.3985H13.3676H13.3367H13.3057H13.2748H13.2439H13.213H13.1822H13.1513H13.1204H13.0895H13.0587H13.0278H12.997H12.9661H12.9353H12.9045H12.8737H12.8428H12.812H12.7813H12.7505H12.7197H12.6889H12.6582H12.6274H12.5967H12.566H12.5353H12.5046H12.4739H12.4432H12.4126H12.3819H12.3513H12.3206H12.29H12.2594H12.2288H12.1983H12.1677H12.1372H12.1066H12.0761H12.0456H12.0151H11.9846H11.9542H11.9237H11.8933H11.8629H11.8325H11.8021H11.7718H11.7414H11.7111H11.6808H11.6505H11.6202H11.59H11.5597H11.5295H11.4993H11.4691H11.439H11.4088H11.3787H11.3486H11.3185H11.2885H11.2584H11.2284H11.1984H11.1684H11.1385H11.1085H11.0786H11.0487H11.0189H10.989H10.9592H10.9294H10.8997H10.8699H10.8402H10.8105H10.7808H10.7512H10.7215H10.6919H10.6624H10.6328H10.6033H10.5738H10.5443H10.5149H10.4855H10.4561H10.4267H10.3974H10.3681H10.3388H10.3095H10.2803H10.2511H10.222H10.1928H10.1637H10.1346H10.1056H10.0766H10.0476H10.0186H9.98973H9.96083H9.93198H9.90315H9.87435H9.84559H9.81685H9.78816H9.75949H9.73086H9.70226H9.67369H9.64516H9.61666H9.58819H9.55976H9.53137H9.50301H9.47468H9.44639H9.41814H9.38992H9.36174H9.33359H9.30549H9.27741H9.24938H9.22138H9.19342H9.1655H9.13762H9.10977H9.08196H9.05419H9.02646H8.99877H8.97112H8.94351H8.91594H8.88841H8.86092H8.83347H8.80606H8.77869H8.75136H8.72408H8.69683H8.66963H8.64247H8.61536H8.58828H8.56125H8.53426H8.50732H8.48042H8.45356H8.42675H8.39998H8.37326H8.34658H8.31995H8.29336H8.26682H8.24032H8.21387H8.18747H8.16111H8.1348H8.10853H8.08232H8.05615H8.03003H8.00395H7.97793H7.95195H7.92602H7.90015H7.87432H7.84853H7.8228H7.79712H7.77149H7.74591H7.72038H7.6949H7.66947H7.6441H7.61877H7.5935H7.56827H7.5431H7.51799H7.49292H7.46791H7.44295H7.41805H7.3932H7.3684H7.34365H7.31896H7.29433H7.26975H7.24523H7.22076H7.19634H7.17198H7.14768H7.12344H7.09925H7.07511H7.05104H7.02702H7.00306H6.97915H6.95531H6.93152H6.90779H6.88412H6.86051H6.83696H6.81346H6.79003H6.76665H6.74334H6.72009C6.31574 22.1667 5.89016 21.8634 5.5676 20.9691C5.25221 20.0946 5.10754 18.8127 5.18894 17.2692C5.34467 14.3165 6.31992 10.5469 8.28705 7.16667Z" stroke="#966CEE"/>
<path d="M9.14658 23.3553L9.46405 22.6886C9.71279 22.1662 10.2398 21.8335 10.8183 21.8335H17.1816C17.7602 21.8335 18.2872 22.1662 18.5359 22.6886L18.8534 23.3553C19.3274 24.3507 18.6016 25.5002 17.4991 25.5002H10.5009C9.39837 25.5002 8.67258 24.3507 9.14658 23.3553Z" stroke="#966CEE"/>
<path d="M21.6666 22L25.2952 23.4514C25.9521 23.7142 26.6666 23.2304 26.6666 22.523V19.7475C26.6666 19.4823 26.5613 19.228 26.3737 19.0404L22.3333 15" stroke="#966CEE"/>
<path d="M6.66663 22L2.68442 23.4933C2.03067 23.7385 1.33329 23.2552 1.33329 22.557V19.7475C1.33329 19.4823 1.43865 19.228 1.62619 19.0404L5.66663 15" stroke="#966CEE"/>
</svg>
