<svg width="26" height="27" viewBox="0 0 26 27" fill="none" xmlns="http://www.w3.org/2000/svg">
<path d="M5.16666 19.0002V24.3335C5.16666 25.5301 4.19661 26.5002 3 26.5002C1.80338 26.5002 0.833328 25.5301 0.833328 24.3335V19.0002C0.833328 17.8035 1.80338 16.8335 3 16.8335C4.19661 16.8335 5.16666 17.8035 5.16666 19.0002Z" stroke="#966CEE"/>
<path d="M18.5 18.3332V24.3332C18.5 25.5298 17.5299 26.4998 16.3333 26.4998C15.1367 26.4998 14.1667 25.5298 14.1667 24.3332V18.3332C14.1667 17.1366 15.1367 16.1665 16.3333 16.1665C17.5299 16.1665 18.5 17.1366 18.5 18.3332Z" stroke="#966CEE"/>
<path d="M11.8333 15.0002V24.3335C11.8333 25.5301 10.8633 26.5002 9.66667 26.5002C8.47005 26.5002 7.5 25.5301 7.5 24.3335V15.0002C7.5 13.8035 8.47005 12.8335 9.66667 12.8335C10.8633 12.8335 11.8333 13.8035 11.8333 15.0002Z" stroke="#966CEE"/>
<path d="M25.1667 12.3332V24.3332C25.1667 25.5298 24.1966 26.4998 23 26.4998C21.8034 26.4998 20.8333 25.5298 20.8333 24.3332V12.3332C20.8333 11.1366 21.8034 10.1665 23 10.1665C24.1966 10.1665 25.1667 11.1366 25.1667 12.3332Z" stroke="#966CEE"/>
<path d="M1 12.3333L9.66667 7L16.3333 11L25 1M25 1L21.3333 1.66667M25 1V4.66667" stroke="#CAC3F8" stroke-linecap="round" stroke-linejoin="round"/>
</svg>
