<svg width="24" height="24" viewBox="0 0 24 24" fill="none" xmlns="http://www.w3.org/2000/svg">
<g id="general/heart">
<path id="basic / heart outline" d="M11.2449 5.65556L12 6.52542L12.7551 5.65556C13.0315 5.33725 13.3563 5.05623 13.7185 4.81996C14.5211 4.29647 15.496 4 16.5 4C19.046 4 21 5.94419 21 8.3951C21 9.30517 20.784 10.1846 20.3948 11.0463L20.3946 11.0466C19.1522 13.7994 16.2569 16.1897 13.5222 18.4215L13.5122 18.4297C12.9937 18.8529 12.4823 19.2703 12 19.6784C11.5177 19.2703 11.0063 18.8529 10.4878 18.4297L10.4778 18.4215C7.74306 16.1897 4.84765 13.7993 3.6053 11.0465L3.60516 11.0462C3.21595 10.1845 3 9.30512 3 8.3951C3 5.94419 4.95404 4 7.5 4C8.50405 4 9.47894 4.29647 10.2815 4.81996C10.6437 5.05623 10.9685 5.33725 11.2449 5.65556Z" stroke="#392B4B" stroke-width="2" stroke-linecap="round"/>
</g>
</svg>
