<svg width="32" height="32" viewBox="0 0 32 32" fill="none" xmlns="http://www.w3.org/2000/svg">
<path d="M16.6667 23.3333L14.9351 8M16.6667 23.3333H12M16.6667 23.3333L13.5455 27.4545M14.9351 8V8C14.6072 5.70482 12.6415 4 10.323 4H9.01395C6.24708 4 4.00626 6.24708 4.01397 9.01393L4.03998 18.3473C4.04766 21.1032 6.28398 23.3333 9.03996 23.3333H12M14.9351 8H22.961C25.7174 8 27.9538 10.2307 27.961 12.987L27.987 22.987C27.9942 25.7535 25.7535 28 22.987 28H15.5641C14.2113 28 13.0258 27.0945 12.6698 25.7894L12 23.3333" stroke="#966CEE"/>
<path d="M7.33334 17.3335L7.8889 14.4764M12 17.3335L11.4445 14.4764M11.4445 14.4764L10.5929 10.097C10.5067 9.65359 10.1184 9.3335 9.66668 9.3335V9.3335C9.21499 9.3335 8.82666 9.65359 8.74044 10.097L7.8889 14.4764M11.4445 14.4764H7.8889" stroke="#CAC3F8" stroke-linecap="round"/>
<path d="M18.6667 15.3333H19.7778M25.3333 15.3333H24.2222M22 15.3333L22 14M22 15.3333H24.2222M22 15.3333H19.7778M24.2222 15.3333C23.7592 16.7302 22.2222 20.0762 19.3333 21.3333M19.7778 15.3333C20.0555 16.5556 22.1667 20.0238 24.6667 21.3333" stroke="#CAC3F8" stroke-linecap="round"/>
</svg>
