<svg width="32" height="29" viewBox="0 0 32 29" fill="none" xmlns="http://www.w3.org/2000/svg">
<path d="M17.3333 7.66699H25.3333" stroke="#CAC3F8"/>
<path d="M6.66666 7.66699H14.6667" stroke="#CAC3F8"/>
<rect x="14.6667" y="5" width="2.66667" height="18.6667" stroke="#966CEE"/>
<circle cx="16" cy="3.00016" r="2.16667" stroke="#966CEE"/>
<path d="M17.3333 23.667L18.6667 25.667H19.3333C20.8061 25.667 22 26.8609 22 28.3337V28.3337H10V28.3337C10 26.8609 11.1939 25.667 12.6667 25.667H13.3333L14.6667 23.667" stroke="#966CEE"/>
<path d="M30.4175 15.8333H20.2491L25.3333 7.92463L30.4175 15.8333Z" stroke="#CAC3F8"/>
<path d="M11.7508 15.8333H1.58249L6.66666 7.92463L11.7508 15.8333Z" stroke="#CAC3F8"/>
<path d="M20 16.3335V17.3335C20 18.9904 21.3431 20.3335 23 20.3335H27.6667C29.3235 20.3335 30.6667 18.9904 30.6667 17.3335V16.3335" stroke="#CAC3F8"/>
<path d="M1.33331 16.3335V17.3335C1.33331 18.9904 2.67646 20.3335 4.33331 20.3335H8.99998C10.6568 20.3335 12 18.9904 12 17.3335V16.3335" stroke="#CAC3F8"/>
</svg>
