<svg width="32" height="32" viewBox="0 0 32 32" fill="none" xmlns="http://www.w3.org/2000/svg">
<path d="M23.5239 13.413C25.5454 17.414 24.8849 22.4228 21.5425 25.7653C17.3769 29.9309 10.6231 29.9309 6.45754 25.7653C2.29195 21.5997 2.29195 14.8459 6.45754 10.6803C9.8 7.33788 14.8088 6.67741 18.8099 8.69892" stroke="#966CEE" stroke-linecap="round"/>
<path d="M20.4405 16.4965C21.0344 18.7206 20.4589 21.192 18.7141 22.9369C16.1106 25.5404 11.8895 25.5404 9.286 22.9369C6.6825 20.3334 6.6825 16.1123 9.286 13.5088C11.0309 11.7639 13.5023 11.1885 15.7264 11.7824" stroke="#966CEE" stroke-linecap="round"/>
<path d="M23.4281 8.79476L14.9428 17.28M23.4281 8.79476L26.2565 9.73757L29.5564 6.43774L26.728 5.49493L25.7851 2.6665L22.4853 5.96634L23.4281 8.79476Z" stroke="#CAC3F8" stroke-linejoin="round"/>
<path d="M15.5321 19.7549C14.6859 20.601 13.3141 20.601 12.4679 19.7549C11.6218 18.9087 11.6218 17.5369 12.4679 16.6908C13.3141 15.8446 14.6859 15.8446 15.5321 16.6908C16.3782 17.5369 16.3782 18.9087 15.5321 19.7549Z" stroke="#CAC3F8"/>
</svg>
