<svg width="32" height="32" viewBox="0 0 32 32" fill="none" xmlns="http://www.w3.org/2000/svg">
<path d="M10.8174 21.3332L16.6663 27.3332L27.3799 16.3429C27.9992 15.7079 28.4905 14.9539 28.8256 14.1241C29.1608 13.2943 29.3333 12.4049 29.3333 11.5066C29.3333 10.6084 29.1608 9.71897 28.8256 8.88916C28.4905 8.05934 27.9992 7.3054 27.3799 6.6704C26.7609 6.03511 26.0259 5.53115 25.217 5.18731C24.4081 4.84348 23.5411 4.6665 22.6654 4.6665C21.7898 4.6665 20.9228 4.84348 20.1139 5.18731C19.305 5.53115 18.57 6.03511 17.951 6.6704L16.6663 7.98824L15.3817 6.6704C14.1313 5.38775 12.4355 4.66717 10.6672 4.66717C8.89898 4.66717 7.20314 5.38775 5.95279 6.6704C4.70244 7.95305 4 9.69269 4 11.5066C4 12.8801 4.40273 14.211 5.1411 15.3332" stroke="#966CEE" stroke-linecap="round" stroke-linejoin="round"/>
<path d="M2.66669 18H10.6667L13.3334 12L16.6667 20L19.3334 14.6667H22.6667" stroke="#CAC3F8" stroke-linecap="round" stroke-linejoin="round"/>
</svg>
