<svg width="32" height="32" viewBox="0 0 32 32" fill="none" xmlns="http://www.w3.org/2000/svg">
<path d="M12 12.3335C12.3265 10.879 13.0204 9.69713 14 9.3335" stroke="#CAC3F8"/>
<path d="M20 12.3335C19.6735 10.879 18.9796 9.69713 18 9.3335" stroke="#CAC3F8"/>
<circle cx="16" cy="7.33333" r="2.83333" stroke="#CAC3F8"/>
<circle cx="16" cy="7.33333" r="6.83333" stroke="#966CEE"/>
<path d="M20.6667 29.667C20.9932 28.2124 21.6871 27.0306 22.6667 26.667" stroke="#CAC3F8"/>
<path d="M28.6667 29.667C28.3401 28.2124 27.6463 27.0306 26.6667 26.667" stroke="#CAC3F8"/>
<circle cx="24.6667" cy="24.6668" r="2.83333" stroke="#CAC3F8"/>
<circle cx="24.6667" cy="24.6668" r="6.83333" stroke="#966CEE"/>
<path d="M3.33334 29.667C3.65987 28.2124 4.35374 27.0306 5.33334 26.667" stroke="#CAC3F8"/>
<path d="M11.3333 29.667C11.0068 28.2124 10.3129 27.0306 9.33334 26.667" stroke="#CAC3F8"/>
<path d="M10.1667 24.6668C10.1667 26.2316 8.89814 27.5002 7.33333 27.5002C5.76853 27.5002 4.5 26.2316 4.5 24.6668C4.5 23.102 5.76853 21.8335 7.33333 21.8335C8.89814 21.8335 10.1667 23.102 10.1667 24.6668Z" stroke="#CAC3F8"/>
<path d="M14.1667 24.6668C14.1667 28.4408 11.1073 31.5002 7.33333 31.5002C3.55939 31.5002 0.5 28.4408 0.5 24.6668C0.5 20.8929 3.55939 17.8335 7.33333 17.8335C11.1073 17.8335 14.1667 20.8929 14.1667 24.6668Z" stroke="#966CEE"/>
<path d="M16 14V18M16 18L12.6667 20M16 18L19.3333 20" stroke="#966CEE"/>
</svg>
