<svg width="24" height="25" viewBox="0 0 24 25" fill="none" xmlns="http://www.w3.org/2000/svg">
<path d="M0.5 3.33333C0.5 1.76853 1.76853 0.5 3.33333 0.5H9.33333C10.8981 0.5 12.1667 1.76853 12.1667 3.33333V20.8928C12.1667 21.028 12.154 21.1628 12.1289 21.2956L11.7582 23.2553L11.1557 22.2185C10.5889 21.2431 9.54592 20.6429 8.41774 20.6429H3.33334C1.76853 20.6429 0.5 19.3743 0.5 17.8095V3.33333Z" stroke="#966CEE"/>
<path d="M11.8333 3.33333C11.8333 1.76853 13.1018 0.5 14.6666 0.5H20.6666C22.2315 0.5 23.5 1.76853 23.5 3.33333V17.8095C23.5 19.3743 22.2315 20.6429 20.6666 20.6429H15.5822C14.4541 20.6429 13.4111 21.2431 12.8443 22.2185L12.2418 23.2553L11.8711 21.2956C11.846 21.1628 11.8333 21.028 11.8333 20.8928V3.33333Z" stroke="#966CEE"/>
<path d="M4 4.6665L8.66667 4.6665" stroke="#CAC3F8" stroke-linecap="round"/>
<path d="M15.3333 8H20" stroke="#CAC3F8" stroke-linecap="round"/>
<path d="M15.3333 4.6665H20" stroke="#CAC3F8" stroke-linecap="round"/>
<path d="M4 8L8.66667 8" stroke="#CAC3F8" stroke-linecap="round"/>
<path d="M4 11.3335L8.66667 11.3335" stroke="#CAC3F8" stroke-linecap="round"/>
<path d="M15.3333 11.3335L20 11.3335" stroke="#CAC3F8" stroke-linecap="round"/>
<path d="M15.3333 14.6665H17.3333" stroke="#CAC3F8" stroke-linecap="round"/>
</svg>
